<svg width="84" height="24" viewBox="0 0 84 24" fill="none" xmlns="http://www.w3.org/2000/svg">
<path d="M0.896307 23V1.18182H5.50923V19.1967H14.8629V23H0.896307ZM37.1179 12.0909C37.1179 14.4702 36.6669 16.4943 35.7649 18.1634C34.87 19.8324 33.6484 21.1072 32.1001 21.9879C30.5589 22.8615 28.826 23.2983 26.9013 23.2983C24.9624 23.2983 23.2223 22.858 21.6811 21.9773C20.1399 21.0966 18.9219 19.8217 18.027 18.1527C17.1321 16.4837 16.6847 14.4631 16.6847 12.0909C16.6847 9.71165 17.1321 7.6875 18.027 6.01847C18.9219 4.34943 20.1399 3.07812 21.6811 2.20455C23.2223 1.32386 24.9624 0.883522 26.9013 0.883522C28.826 0.883522 30.5589 1.32386 32.1001 2.20455C33.6484 3.07812 34.87 4.34943 35.7649 6.01847C36.6669 7.6875 37.1179 9.71165 37.1179 12.0909ZM32.4411 12.0909C32.4411 10.5497 32.2102 9.25 31.7486 8.19176C31.294 7.13352 30.6513 6.33097 29.8203 5.78409C28.9893 5.23722 28.0163 4.96378 26.9013 4.96378C25.7862 4.96378 24.8132 5.23722 23.9822 5.78409C23.1513 6.33097 22.505 7.13352 22.0433 8.19176C21.5888 9.25 21.3615 10.5497 21.3615 12.0909C21.3615 13.6321 21.5888 14.9318 22.0433 15.9901C22.505 17.0483 23.1513 17.8509 23.9822 18.3977C24.8132 18.9446 25.7862 19.218 26.9013 19.218C28.0163 19.218 28.9893 18.9446 29.8203 18.3977C30.6513 17.8509 31.294 17.0483 31.7486 15.9901C32.2102 14.9318 32.4411 13.6321 32.4411 12.0909ZM55.0023 8.23438C54.8532 7.71591 54.6436 7.25781 54.3738 6.86008C54.1039 6.45526 53.7736 6.11435 53.383 5.83736C52.9995 5.55327 52.5591 5.33665 52.062 5.1875C51.5719 5.03835 51.0286 4.96378 50.432 4.96378C49.3169 4.96378 48.3368 5.24077 47.4917 5.79474C46.6536 6.34872 46.0002 7.15483 45.5314 8.21307C45.0627 9.2642 44.8283 10.5497 44.8283 12.0696C44.8283 13.5895 45.0591 14.8821 45.5208 15.9474C45.9824 17.0128 46.6358 17.826 47.481 18.3871C48.3262 18.9411 49.324 19.218 50.4746 19.218C51.5186 19.218 52.41 19.0334 53.1486 18.6641C53.8944 18.2876 54.4625 17.7585 54.8532 17.0767C55.2509 16.3949 55.4498 15.5888 55.4498 14.6584L56.3873 14.7969H50.7623V11.3239H59.8922V14.0724C59.8922 15.9901 59.4874 17.6378 58.6777 19.0156C57.8681 20.3864 56.753 21.4446 55.3326 22.1903C53.9121 22.929 52.2857 23.2983 50.4533 23.2983C48.4078 23.2983 46.611 22.8473 45.0627 21.9453C43.5144 21.0362 42.307 19.7472 41.4405 18.0781C40.5811 16.402 40.1515 14.4134 40.1515 12.1122C40.1515 10.3437 40.4071 8.76705 40.9185 7.3821C41.437 5.99006 42.1614 4.81108 43.0918 3.84517C44.0222 2.87926 45.1053 2.14418 46.3411 1.63991C47.5769 1.13565 48.9157 0.883522 50.3574 0.883522C51.5932 0.883522 52.7438 1.06463 53.8091 1.42685C54.8745 1.78196 55.8191 2.28622 56.6429 2.93963C57.4739 3.59304 58.1522 4.37074 58.6777 5.27273C59.2033 6.16761 59.5407 7.15483 59.6898 8.23438H55.0023ZM83.407 12.0909C83.407 14.4702 82.956 16.4943 82.054 18.1634C81.1591 19.8324 79.9375 21.1072 78.3892 21.9879C76.848 22.8615 75.1151 23.2983 73.1903 23.2983C71.2514 23.2983 69.5114 22.858 67.9702 21.9773C66.429 21.0966 65.2109 19.8217 64.3161 18.1527C63.4212 16.4837 62.9737 14.4631 62.9737 12.0909C62.9737 9.71165 63.4212 7.6875 64.3161 6.01847C65.2109 4.34943 66.429 3.07812 67.9702 2.20455C69.5114 1.32386 71.2514 0.883522 73.1903 0.883522C75.1151 0.883522 76.848 1.32386 78.3892 2.20455C79.9375 3.07812 81.1591 4.34943 82.054 6.01847C82.956 7.6875 83.407 9.71165 83.407 12.0909ZM78.7301 12.0909C78.7301 10.5497 78.4993 9.25 78.0376 8.19176C77.5831 7.13352 76.9403 6.33097 76.1094 5.78409C75.2784 5.23722 74.3054 4.96378 73.1903 4.96378C72.0753 4.96378 71.1023 5.23722 70.2713 5.78409C69.4403 6.33097 68.794 7.13352 68.3324 8.19176C67.8778 9.25 67.6506 10.5497 67.6506 12.0909C67.6506 13.6321 67.8778 14.9318 68.3324 15.9901C68.794 17.0483 69.4403 17.8509 70.2713 18.3977C71.1023 18.9446 72.0753 19.218 73.1903 19.218C74.3054 19.218 75.2784 18.9446 76.1094 18.3977C76.9403 17.8509 77.5831 17.0483 78.0376 15.9901C78.4993 14.9318 78.7301 13.6321 78.7301 12.0909Z" fill="white"/>
</svg>
